<svg width="96" height="96" viewBox="0 0 96 96" fill="none" xmlns="http://www.w3.org/2000/svg">
<g id="Group 9">
<circle id="Oval Copy 3" cx="48" cy="48" r="48" fill="#FCB72B"/>
<g id="001-scooter">
<path id="Path" d="M45.0698 66.301C44.8521 66.301 44.6389 66.3895 44.4852 66.5433C44.3314 66.697 44.2429 66.9105 44.2429 67.1279C44.2429 67.3453 44.3314 67.5588 44.4852 67.7125C44.6389 67.8663 44.8521 67.9548 45.0698 67.9548C45.2872 67.9548 45.5003 67.8663 45.6544 67.7125C45.8082 67.5588 45.8967 67.3462 45.8967 67.1279C45.8967 66.9105 45.8082 66.697 45.6544 66.5433C45.5003 66.3895 45.2872 66.301 45.0698 66.301Z" fill="black"/>
<path id="Shape" fill-rule="evenodd" clip-rule="evenodd" d="M61.5391 52.4188L59.6121 43.7131C60.1321 43.6427 60.5908 43.3781 60.9134 42.9951C61.2943 43.2331 61.7435 43.3714 62.2248 43.3714H63.8786C64.3353 43.3714 64.7054 43.0012 64.7054 42.5445V39.237C64.7054 38.7803 64.3353 38.4101 63.8786 38.4101H62.2248C61.7293 38.4101 61.2674 38.5568 60.8795 38.8084C60.501 38.3804 59.9483 38.1097 59.3333 38.1097H54.4522C53.5753 38.1097 52.8246 38.6598 52.5258 39.4327H50.5659C49.3805 39.4327 48.416 40.3972 48.416 41.5826C48.416 42.768 49.3805 43.7325 50.5659 43.7325H54.822V45.3988C54.822 45.8555 55.1922 46.2257 55.6489 46.2257C56.1056 46.2257 56.4758 45.8555 56.4758 45.3988V43.7325H57.9228L59.9984 53.1107L56.0701 60.1075C55.6408 60.8691 54.8314 61.3423 53.957 61.3423H44.1505C43.74 57.8995 40.8046 55.2208 37.2532 55.2208C35.6818 55.2208 34.1993 55.7328 32.9658 56.7011L32.9609 56.705C31.4922 57.8601 30.5691 59.5177 30.354 61.3423H28.6557C28.7636 55.3978 33.6328 50.5955 39.6021 50.5955H45.4677C45.9306 50.5955 46.3075 50.9725 46.3075 51.4356V58.8617C46.3075 59.3184 46.6776 59.6885 47.1344 59.6885H51.5342C53.3291 59.6885 54.9832 58.7124 55.8508 57.1417C56.2523 56.415 56.4651 55.592 56.4658 54.7622L56.47 52.0151C56.4706 51.5584 56.1008 51.1876 55.6441 51.1869H55.6431C55.187 51.1869 54.8169 51.5564 54.8162 52.0125L54.812 54.7603C54.8117 55.3119 54.6702 55.8591 54.4034 56.342C53.8265 57.3859 52.7271 58.0345 51.5342 58.0345H47.9612V51.4353C47.9612 51.0119 47.8547 50.6126 47.6676 50.2628C48.4105 49.8336 48.9118 49.0312 48.9118 48.1136C48.9118 46.7457 47.7988 45.633 46.4312 45.633H43.4131C43.1231 45.633 42.845 45.6834 42.5862 45.7751V38.5219C42.5862 37.154 41.4732 36.0413 40.1056 36.0413H34.7713C30.9044 36.0413 27.6886 38.8804 27.0975 42.5832C27.0727 42.6621 27.0591 42.7457 27.0591 42.8326C27.0591 42.8352 27.0593 42.8378 27.0594 42.8403C27.0596 42.8427 27.0598 42.8451 27.0598 42.8475C27.0203 43.164 27 43.486 27 43.8126V48.1139C27 49.3559 27.9176 50.3875 29.1105 50.5668L30.9415 52.3978C28.5155 54.6963 27 57.9463 27 61.5442V62.1692C27 62.6259 27.3702 62.996 27.8269 62.996H32.4738C32.4632 63.0493 32.4574 63.1049 32.4574 63.1614C32.4574 64.3614 32.9015 65.4592 33.6328 66.3009H27.8269C27.3702 66.3009 27 66.6714 27 67.1278C27 67.5845 27.3702 67.9547 27.8269 67.9547H37.1576L37.1852 67.9556C37.2079 67.9565 37.2305 67.9573 37.2532 67.9573C39.8976 67.9573 42.0491 65.8058 42.0491 63.1614C42.0491 63.1049 42.0433 63.0493 42.0326 62.996H53.957C55.259 62.996 56.4758 62.372 57.2384 61.3397H58.2855C58.0501 61.9127 57.9251 62.5303 57.9251 63.1614C57.9251 64.3614 58.3692 65.4592 59.1005 66.3009H48.3773C47.9205 66.3009 47.5504 66.6714 47.5504 67.1278C47.5504 67.5845 47.9205 67.9547 48.3773 67.9547H62.6253C62.6573 67.9557 62.689 67.9573 62.7209 67.9573C65.3653 67.9573 67.5168 65.8058 67.5168 63.1614C67.5168 62.5303 67.3918 61.9127 67.1563 61.3397H68.509C68.9658 61.3397 69.3359 60.9696 69.3359 60.5128C69.3359 56.1482 65.8653 52.5787 61.5391 52.4188ZM43.4131 47.2871H46.4312C46.887 47.2871 47.2581 47.6579 47.2581 48.1139C47.2581 48.5697 46.887 48.9408 46.4312 48.9408H43.4131C42.957 48.9408 42.5862 48.5697 42.5862 48.1139C42.5862 47.6579 42.957 47.2871 43.4131 47.2871ZM28.656 43.7109L28.656 43.7109C28.6549 43.7448 28.6537 43.7786 28.6537 43.8126V48.1139C28.6537 48.5697 29.0245 48.9408 29.4803 48.9408H29.4809H40.1053C40.5614 48.9408 40.9322 48.5697 40.9322 48.1139V38.5222C40.9322 38.0661 40.5614 37.6953 40.1053 37.6953H34.7713C32.0268 37.6953 29.699 39.5119 28.9264 42.0061H37.7057C38.1625 42.0061 38.5326 42.3762 38.5326 42.8329C38.5326 43.2896 38.1625 43.6598 37.7057 43.6598H28.6576L28.656 43.7109ZM31.4771 50.5946H33.3692C32.9719 50.8213 32.5885 51.0697 32.2196 51.3371L31.4771 50.5946ZM37.2852 66.3026C39.0029 66.2854 40.3953 64.8833 40.3953 63.1614C40.3953 63.1049 40.4012 63.0493 40.4118 62.996H34.0946C34.1053 63.0493 34.1111 63.1049 34.1111 63.1614C34.1111 64.862 35.4693 66.2502 37.1579 66.3009H37.2532C37.2593 66.3009 37.2654 66.3014 37.2715 66.3018C37.2761 66.3021 37.2806 66.3024 37.2852 66.3026ZM32.0226 61.3423C32.2274 60.0287 32.9173 58.842 33.9829 58.0051C33.9855 58.0035 33.9877 58.0012 33.9903 57.9996C34.9289 57.2638 36.0572 56.8746 37.2532 56.8746C39.8915 56.8746 42.0849 58.8142 42.4832 61.3423H32.0226ZM63.0517 40.0639H62.2248C61.7687 40.0639 61.3979 40.435 61.3979 40.8907C61.3979 41.3468 61.7687 41.7176 62.2248 41.7176H63.0517V40.0639ZM50.0698 41.5826C50.0698 41.309 50.2923 41.0865 50.5659 41.0865H52.3876V41.6679C52.3876 41.8087 52.4018 41.946 52.4286 42.0787H50.5659C50.2923 42.0787 50.0698 41.8562 50.0698 41.5826ZM54.4522 42.0787H55.6489H59.3333C59.5598 42.0787 59.7442 41.8946 59.7442 41.6679V40.1743C59.7442 39.9479 59.5598 39.7635 59.3333 39.7635H54.4522C54.2258 39.7635 54.0413 39.9479 54.0413 40.1743V41.6679C54.0413 41.8946 54.2258 42.0787 54.4522 42.0787ZM65.863 63.1614C65.863 64.8833 64.4706 66.2854 62.7529 66.3026C62.7507 66.3025 62.7484 66.3024 62.7462 66.3023C62.7438 66.3021 62.7415 66.302 62.7392 66.3018C62.7331 66.3014 62.727 66.301 62.7209 66.301H62.6256C60.937 66.2502 59.5788 64.862 59.5788 63.1614C59.5788 62.5044 59.7836 61.8694 60.1609 61.3397H65.281C65.6583 61.8694 65.863 62.5044 65.863 63.1614ZM61.3563 54.07L58.2032 59.686H67.6292C67.2274 56.5597 64.5762 54.1291 61.3563 54.07Z" fill="#495567"/>
<path id="Path_2" d="M55.6489 49.5334C56.1056 49.5334 56.4758 49.1632 56.4758 48.7065C56.4758 48.2498 56.1056 47.8796 55.6489 47.8796H55.646C55.1893 47.8796 54.8204 48.2498 54.8204 48.7065C54.8204 49.1632 55.1922 49.5334 55.6489 49.5334Z" fill="black"/>
</g>
</g>
</svg>
